<svg width="122" height="122" viewBox="0 0 122 122" fill="none" xmlns="http://www.w3.org/2000/svg">
<path d="M122 61C122 94.6894 94.6894 122 61 122C27.3106 122 0 94.6894 0 61C0 27.3106 27.3106 0 61 0C94.6894 0 122 27.3106 122 61Z" fill="white"/>
<path d="M30.559 75.5112C27.654 75.5112 25.2476 75.0126 23.3398 74.0154C21.4753 73.0181 20.0879 71.739 19.1773 70.1781C18.2668 68.6172 17.8115 67.0129 17.8115 65.3653C17.8115 63.761 18.2018 62.2435 18.9822 60.8126C19.7627 59.3384 20.8683 58.1244 22.2992 57.1705C23.7734 56.2166 25.5077 55.7396 27.5022 55.7396C27.4588 56.1299 27.4372 56.4984 27.4372 56.8453C27.4372 57.1488 27.4372 57.3006 27.4372 57.3006C27.4372 60.2056 27.719 62.5036 28.2827 64.1946C28.8463 65.8422 29.5617 67.0346 30.4289 67.7717C31.2961 68.4654 32.185 68.8123 33.0955 68.8123C34.483 68.8123 35.7187 68.2703 36.8027 67.1864C37.8866 66.059 38.4286 64.7583 38.4286 63.2841C38.4286 61.6364 37.7132 60.1839 36.2824 58.9265C34.8949 57.6691 33.1172 56.2816 30.9492 54.7641C29.7352 53.8535 28.4344 52.8346 27.0469 51.7073C25.7028 50.5366 24.5538 49.1708 23.5999 47.6099C22.646 46.0056 22.1691 44.1195 22.1691 41.9516C22.1691 39.6969 22.6894 37.7024 23.73 35.968C24.814 34.2337 26.2231 32.7812 27.9575 31.6105C29.7352 30.3964 31.6646 29.4859 33.7459 28.8789C35.8704 28.2285 37.9733 27.9033 40.0546 27.9033C42.6127 27.9033 44.7156 28.3152 46.3633 29.139C48.0109 29.9629 49.2466 31.0252 50.0704 32.3259C50.8943 33.6267 51.3062 34.9708 51.3062 36.3583C51.3062 37.659 50.9376 38.9164 50.2005 40.1305C49.5068 41.3012 48.4662 42.2551 47.0787 42.9922C45.6912 43.7293 43.9785 44.0978 41.9407 44.0978C42.0708 43.4908 42.1575 42.9488 42.2008 42.4719C42.2442 41.9516 42.2659 41.4963 42.2659 41.1061C42.2659 38.9381 41.7889 37.3989 40.835 36.4884C39.9245 35.5345 38.9056 35.0575 37.7782 35.0575C36.6943 35.0575 35.6537 35.4694 34.6564 36.2932C33.6591 37.0737 33.1605 38.3528 33.1605 40.1305C33.1605 41.648 33.5508 42.9488 34.3312 44.0328C35.155 45.1167 36.1956 46.0706 37.453 46.8945C38.7538 47.7183 40.1196 48.5204 41.5504 49.3009C43.0246 50.0813 44.4338 50.9485 45.7779 51.9024C47.1654 52.8129 48.3144 53.8969 49.2249 55.1543C50.1355 56.4117 50.5907 57.9943 50.5907 59.9021C50.5907 61.8966 50.0488 63.8477 48.9648 65.7555C47.8808 67.6199 46.4066 69.2893 44.5422 70.7635C42.6778 72.1943 40.5315 73.3433 38.1034 74.2105C35.7187 75.0777 33.2039 75.5112 30.559 75.5112Z" fill="#061E40"/>
<path d="M95.1418 96.1011C93.4074 96.1011 91.9766 95.7109 90.8492 94.9304C89.7219 94.1499 88.8114 93.1093 88.1176 91.8086C87.4239 90.4644 86.8602 88.9902 86.4267 87.386C86.0364 85.7383 85.6679 84.0907 85.321 82.4431C84.8874 80.1451 84.3454 77.9988 83.6951 76.0043C83.088 74.0098 82.0908 72.6223 80.7033 71.8419C79.8361 75.007 79.0123 78.1939 78.2319 81.4025C77.4514 84.5677 77.0612 87.7112 77.0612 90.833C77.0612 91.3099 77.0612 91.8086 77.0612 92.3289C77.1045 92.8058 77.1479 93.2828 77.1912 93.7597C75.6737 95.1906 73.9177 95.906 71.9232 95.906C70.2755 95.906 68.7796 95.2773 67.4355 94.0199C66.1348 92.7625 65.4844 90.7246 65.4844 87.9063C65.4844 85.7817 65.8312 83.6138 66.525 81.4025C67.2187 79.1912 68.0209 76.9582 68.9314 74.7035C69.8853 72.4489 70.7091 70.2159 71.4028 68.0046C72.0966 65.75 72.4435 63.5387 72.4435 61.3707C72.4435 59.9399 72.27 58.9426 71.9232 58.379C71.5763 57.7719 71.121 57.4684 70.5573 57.4684C69.9503 57.4684 69.2783 57.7719 68.5412 58.379C67.8474 58.986 67.1754 59.9182 66.525 61.1756L66.0697 61.0455C66.1564 58.8342 66.6551 56.7964 67.5656 54.9319C68.4761 53.0675 69.6902 51.5933 71.2077 50.5093C72.7686 49.382 74.4596 48.8184 76.2807 48.8184C78.1018 48.8184 79.706 49.5121 81.0935 50.8996C82.481 52.2437 83.1747 54.5851 83.1747 57.9237C83.1747 59.3979 83.023 60.9805 82.7195 62.6715C82.4593 64.3191 82.1341 66.0101 81.7439 67.7445C83.6951 66.0535 85.386 64.189 86.8169 62.1512C88.2911 60.07 89.4184 58.0538 90.1989 56.1026C91.0227 54.1081 91.4346 52.3738 91.4346 50.8996C91.4346 49.9457 91.2395 49.1435 90.8492 48.4932C92.9738 48.4932 94.8599 48.7967 96.5076 49.4037C98.1986 50.0107 99.5427 50.8562 100.54 51.9402C101.537 52.9808 102.036 54.1948 102.036 55.5823C102.036 57.4467 100.974 59.4846 98.8489 61.6959C96.7677 63.9072 93.234 66.0968 88.2477 68.2648C89.5051 68.8284 90.5241 69.6739 91.3045 70.8012C92.1283 71.8852 92.8004 73.0776 93.3207 74.3783C93.8844 75.6357 94.3613 76.8715 94.7515 78.0855C95.4886 80.2101 96.2041 82.0095 96.8978 83.4837C97.6349 84.9145 98.6755 85.6299 100.02 85.6299C100.887 85.6299 101.646 85.3481 102.296 84.7844C102.99 84.2208 103.488 83.5921 103.792 82.8983L104.182 83.0935C104.182 85.4348 103.835 87.6028 103.141 89.5973C102.448 91.5484 101.429 93.131 100.085 94.3451C98.7405 95.5157 97.0929 96.1011 95.1418 96.1011Z" fill="#0284FF"/>
<rect x="56.2158" y="27.9014" width="4.63482" height="68.198" rx="2.31741" fill="#061E40"/>
<rect x="56.2158" y="61.6699" width="4.63482" height="34.4301" rx="2.31741" fill="#0284FF"/>
</svg>
